<?xml version="1.0" standalone="no"?>
<!DOCTYPE svg PUBLIC "-//W3C//DTD SVG 20010904//EN"
 "http://www.w3.org/TR/2001/REC-SVG-20010904/DTD/svg10.dtd">
<svg version="1.0" xmlns="http://www.w3.org/2000/svg"
 width="512.000000pt" height="512.000000pt" viewBox="0 0 512.000000 512.000000"
 preserveAspectRatio="xMidYMid meet">
<metadata>
Created by potrace 1.16, written by Peter Selinger 2001-2019
</metadata>
<g transform="translate(0.000000,512.000000) scale(0.100000,-0.100000)"
fill="#000000" stroke="none">
<path d="M2035 4723 c-49 -70 -102 -146 -117 -168 -68 -101 -45 -92 -303 -116
-126 -11 -232 -22 -234 -25 -3 -2 -14 -109 -25 -238 l-20 -233 -193 -133
c-106 -74 -193 -140 -193 -146 0 -6 22 -59 49 -116 115 -245 141 -301 141
-309 0 -10 -61 -146 -139 -312 -28 -60 -51 -114 -51 -120 0 -7 20 -25 45 -42
24 -16 111 -77 193 -134 l148 -104 20 -233 c11 -128 22 -235 25 -237 2 -3 106
-14 232 -25 125 -12 231 -23 236 -27 5 -3 67 -87 137 -188 70 -100 130 -185
134 -190 6 -7 47 10 235 98 44 21 108 50 143 66 l63 28 52 -23 c29 -13 90 -42
137 -64 200 -93 244 -112 250 -105 4 5 64 90 135 191 70 100 131 185 136 188
5 3 111 14 236 26 126 11 230 22 232 24 2 2 14 107 25 233 12 130 26 234 33
242 6 8 93 70 192 139 99 69 181 130 181 137 0 6 -23 60 -51 120 -111 234
-140 305 -134 324 4 10 46 105 96 210 49 105 89 196 89 202 0 7 -14 21 -30 32
-16 11 -103 71 -193 134 l-163 114 -20 234 c-11 128 -22 235 -25 237 -2 3
-108 14 -234 25 -260 24 -233 13 -310 126 -34 49 -154 219 -187 265 l-17 23
-215 -101 -215 -101 -163 75 c-256 119 -267 124 -270 124 -2 0 -43 -58 -93
-127z m713 -588 c169 -34 353 -135 474 -262 95 -101 170 -228 211 -358 101
-323 19 -668 -218 -911 -180 -184 -399 -276 -655 -276 -186 0 -345 47 -497
148 -186 124 -310 289 -378 504 -33 105 -45 287 -26 405 66 408 409 729 816
763 100 9 179 5 273 -13z"/>
<path d="M1834 1778 c-29 -57 -177 -336 -224 -423 -28 -50 -161 -302 -261
-492 l-54 -102 85 -82 c47 -46 203 -199 348 -341 145 -142 267 -258 271 -258
4 0 131 355 282 790 151 434 276 790 279 790 3 0 128 -356 279 -790 151 -435
278 -790 282 -790 4 0 126 116 271 258 145 142 301 295 348 340 l85 83 -35 67
c-19 37 -53 101 -75 142 -23 41 -74 138 -115 215 -40 77 -103 196 -140 265
-37 69 -93 175 -125 235 -32 61 -61 114 -66 119 -4 4 -56 -65 -116 -155 -59
-90 -111 -167 -114 -172 -6 -8 -23 -1 -302 129 -87 41 -167 74 -177 74 -10 0
-90 -33 -177 -74 -279 -130 -296 -137 -302 -128 -3 5 -54 81 -114 170 -59 89
-109 162 -112 162 -2 0 -12 -15 -21 -32z"/>
</g>
</svg>
