<?xml version="1.0" standalone="no"?>
<!DOCTYPE svg PUBLIC "-//W3C//DTD SVG 20010904//EN"
 "http://www.w3.org/TR/2001/REC-SVG-20010904/DTD/svg10.dtd">
<svg version="1.0" xmlns="http://www.w3.org/2000/svg"
 width="512.000000pt" height="512.000000pt" viewBox="0 0 512.000000 512.000000"
 preserveAspectRatio="xMidYMid meet">
<metadata>
Created by potrace 1.16, written by Peter Selinger 2001-2019
</metadata>
<g transform="translate(0.000000,512.000000) scale(0.100000,-0.100000)"
fill="#000000" stroke="none">
<path d="M1690 4523 c-66 -24 -144 -107 -164 -173 -49 -165 25 -300 199 -364
l31 -11 -82 -710 c-45 -390 -83 -720 -85 -732 -4 -23 -31 -5 -554 377 -27 20
-81 59 -119 86 -38 27 -80 58 -94 70 l-26 21 22 51 c77 179 -53 382 -248 386
-118 2 -213 -54 -264 -156 -52 -105 -27 -249 59 -332 49 -48 135 -79 202 -74
l53 5 14 -46 c8 -25 63 -212 121 -416 58 -203 112 -390 120 -415 8 -25 44
-148 80 -275 37 -126 75 -260 86 -297 l20 -68 1494 0 1493 0 11 33 c5 17 26
86 45 152 308 1067 333 1152 366 1265 l19 65 73 0 c85 1 134 22 194 82 53 55
75 110 75 192 0 88 -28 156 -86 210 -60 56 -107 74 -190 75 -164 1 -285 -120
-285 -285 0 -39 7 -70 25 -104 13 -27 23 -50 22 -51 -1 0 -81 -59 -177 -130
-167 -124 -433 -319 -561 -412 -46 -34 -59 -39 -59 -26 0 14 -146 1298 -163
1436 -3 26 1 29 51 43 194 57 257 326 108 463 -63 58 -101 75 -182 80 -61 4
-80 1 -126 -20 -118 -54 -172 -138 -172 -263 0 -58 5 -79 29 -123 27 -49 71
-98 110 -119 17 -10 14 -18 -130 -318 -37 -77 -82 -171 -100 -210 -60 -129
-350 -742 -375 -792 l-15 -32 -15 32 c-7 18 -45 97 -83 177 -38 80 -84 177
-102 215 -18 39 -56 120 -85 180 -29 61 -69 146 -90 190 -21 44 -88 186 -149
315 -97 204 -109 235 -95 243 9 5 34 25 54 44 109 98 115 277 12 394 -68 77
-208 110 -312 72z"/>
<path d="M1060 1095 l0 -165 1495 0 1495 0 0 165 0 165 -1495 0 -1495 0 0
-165z"/>
</g>
</svg>
