<?xml version="1.0" standalone="no"?>
<!DOCTYPE svg PUBLIC "-//W3C//DTD SVG 20010904//EN"
 "http://www.w3.org/TR/2001/REC-SVG-20010904/DTD/svg10.dtd">
<svg version="1.0" xmlns="http://www.w3.org/2000/svg"
 width="512.000000pt" height="512.000000pt" viewBox="0 0 512.000000 512.000000"
 preserveAspectRatio="xMidYMid meet">
<metadata>
Created by potrace 1.16, written by Peter Selinger 2001-2019
</metadata>
<g transform="translate(0.000000,512.000000) scale(0.100000,-0.100000)"
fill="#000000" stroke="none">
<path d="M1245 4176 c-460 -72 -832 -422 -930 -876 -14 -62 -38 -303 -124
-1235 -50 -540 -56 -636 -42 -760 28 -259 107 -397 275 -480 150 -75 296 -70
461 14 179 91 296 197 635 571 14 15 112 122 219 239 l194 211 627 0 627 0 98
-108 c54 -59 142 -154 195 -212 104 -112 105 -113 243 -265 426 -467 691 -590
974 -450 165 81 245 220 274 475 17 142 10 227 -121 1624 -37 388 -58 485
-147 661 -129 253 -388 468 -671 555 -161 50 -161 50 -1477 49 -931 -1 -1249
-4 -1310 -13z m281 -487 c444 -79 673 -555 457 -949 -21 -38 -68 -96 -113
-141 -132 -132 -301 -197 -480 -186 -446 27 -729 477 -559 889 112 272 410
438 695 387z m2225 -60 c39 -13 94 -62 115 -101 20 -39 17 -112 -6 -158 -32
-62 -81 -94 -154 -98 -53 -3 -66 0 -101 23 -51 34 -72 62 -87 118 -22 85 31
182 117 212 49 17 72 18 116 4z m-351 -423 c164 -109 62 -361 -135 -332 -61
10 -128 71 -145 136 -42 158 142 287 280 196z m772 13 c48 -24 73 -50 94 -96
33 -74 4 -170 -68 -219 -56 -39 -147 -41 -200 -5 -81 56 -110 153 -68 233 25
48 39 62 95 88 52 25 96 25 147 -1z m-399 -395 c70 -36 107 -95 107 -171 0
-118 -125 -209 -235 -173 -70 23 -134 103 -135 169 0 71 49 149 113 176 43 19
111 18 150 -1z"/>
<path d="M1287 3523 c-4 -3 -7 -80 -7 -169 l0 -164 -167 -2 -168 -3 -3 -124
c-2 -82 1 -128 9 -137 9 -11 47 -14 170 -14 l159 0 2 -162 3 -163 138 -3 137
-3 0 166 0 165 154 0 c85 0 161 3 170 6 14 5 16 27 16 140 l0 134 -170 0 -170
0 0 170 0 170 -133 0 c-74 0 -137 -3 -140 -7z"/>
</g>
</svg>
