<?xml version="1.0" encoding="UTF-8" standalone="no"?>
<svg
   id="svg977"
   version="1.1"
   viewBox="0 0 33.614922 33.614918"
   height="33.614918mm"
   width="33.614922mm"
   sodipodi:docname="logo-github.svg"
   inkscape:version="1.1.2 (0a00cf5339, 2022-02-04)"
   inkscape:export-filename="/home/jerboa/art/logo-github-1024.png"
   inkscape:export-xdpi="300"
   inkscape:export-ydpi="300"
   xmlns:inkscape="http://www.inkscape.org/namespaces/inkscape"
   xmlns:sodipodi="http://sodipodi.sourceforge.net/DTD/sodipodi-0.dtd"
   xmlns="http://www.w3.org/2000/svg"
   xmlns:svg="http://www.w3.org/2000/svg"
   xmlns:rdf="http://www.w3.org/1999/02/22-rdf-syntax-ns#"
   xmlns:cc="http://creativecommons.org/ns#"
   xmlns:dc="http://purl.org/dc/elements/1.1/">
  <sodipodi:namedview
     pagecolor="#ffffff"
     bordercolor="#666666"
     borderopacity="1"
     objecttolerance="10"
     gridtolerance="10"
     guidetolerance="10"
     inkscape:pageopacity="0"
     inkscape:pageshadow="2"
     inkscape:window-width="1850"
     inkscape:window-height="1016"
     id="namedview8"
     showgrid="false"
     fit-margin-top="0"
     fit-margin-left="0"
     fit-margin-right="0"
     fit-margin-bottom="0"
     inkscape:zoom="1.3685534"
     inkscape:cx="-25.2091"
     inkscape:cy="-61.01333"
     inkscape:window-x="70"
     inkscape:window-y="27"
     inkscape:window-maximized="1"
     inkscape:current-layer="svg977"
     inkscape:pagecheckerboard="0"
     inkscape:document-units="mm" />
  <defs
     id="defs971" />
  <metadata
     id="metadata974">
    <rdf:RDF>
      <cc:Work
         rdf:about="">
        <dc:format>image/svg+xml</dc:format>
        <dc:type
           rdf:resource="http://purl.org/dc/dcmitype/StillImage" />
      </cc:Work>
    </rdf:RDF>
  </metadata>
  <g
     transform="matrix(0.372807,0,0,0.372807,-8.9922443,-10.465733)"
     id="layer1">
    <path
       id="path1811"
       d="m 78.12141,101.3263 c -1.02452,-0.36643 -2.12573,-1.560955 -2.55693,-2.773615 -0.10262,-0.28859 -0.15056,-0.61715 -0.1744,-1.19526 l -0.0329,-0.79727 0.69602,-1.92673 c 1.25677,-3.47898 1.7411,-5.12437 1.81955,-6.181444 l 0.0396,-0.53412 -0.21352,-0.213528 c -1.00281,-1.002808 -3.56496,-2.401097 -7.46399,-4.073464 l -1.40916,-0.604415 -1.5281,-0.123809 c -0.84045,-0.0681 -1.79717,-0.157302 -2.12605,-0.198233 -2.51186,-0.31264 -4.78823,-1.337699 -6.71093,-3.021963 -0.36326,-0.318214 -0.7587,-0.653486 -0.87875,-0.745053 -0.24274,-0.18515 -0.45852,-0.200456 -1.24669,-0.08844 -1.52918,0.217326 -5.49463,0.25796 -6.74356,0.0691 -1.32519,-0.200387 -3.00594,-0.734742 -4.21887,-1.341294 -1.5809,-0.790565 -2.42311,-1.487937 -4.11404,-3.406532 -1.01097,-1.147085 -1.13355,-1.230116 -2.34973,-1.591707 -3.555213,-1.057015 -5.301098,-1.99627 -7.161437,-3.852732 -1.322302,-1.319552 -1.622528,-1.879667 -1.622528,-3.027074 0,-0.576422 0.02212,-0.711325 0.160856,-0.981634 0.161195,-0.314031 0.726202,-0.900864 1.317488,-1.368374 0.173611,-0.137269 0.349051,-0.311976 0.389866,-0.388237 0.04081,-0.07626 0.115961,-0.679654 0.167,-1.340876 0.164054,-2.125446 0.514246,-2.921908 1.8612,-4.233043 1.397929,-1.360754 2.374625,-1.71967 5.393205,-1.981895 0.98837,-0.08586 1.62595,-0.17095 1.76063,-0.234972 0.11614,-0.0552 0.65962,-0.450585 1.20774,-0.878628 2.72464,-2.127753 3.89792,-2.945376 4.50678,-3.140641 0.14249,-0.0457 0.46445,-0.07093 0.73083,-0.05728 0.4175,0.02141 0.53748,0.05983 0.97425,0.312063 0.44225,0.255402 0.52048,0.280045 0.6976,0.219752 0.10973,-0.03735 0.46781,-0.16346 0.79574,-0.280249 0.51956,-0.185031 0.65339,-0.20755 1.04057,-0.175091 1.8676,0.156573 3.97484,2.332273 3.82794,3.952306 -0.0755,0.832972 -0.36603,1.137529 -2.64109,2.768841 -1.53202,1.098526 -2.20356,1.629471 -2.1742,1.719024 0.0889,0.27114 2.43493,0.462029 9.5157,0.774261 4.94963,0.218257 5.75688,0.288605 6.86515,0.598273 1.65706,0.463008 3.5812,1.498994 5.18996,2.794352 1.50391,1.210945 2.54781,2.337562 4.55463,4.915554 1.55593,1.99877 1.94516,2.415976 2.76027,2.958618 2.22973,1.484389 6.7748,3.10457 11.34063,4.042595 1.47048,0.302104 3.04204,0.563515 7.59141,1.262756 5.28901,0.812922 6.20654,0.995548 7.87302,1.567053 2.1892,0.750776 3.8938,1.908042 4.4514,3.022113 0.18187,0.363371 0.19925,0.456377 0.19856,1.062614 -8e-4,0.565402 -0.0244,0.712224 -0.15938,0.985436 -0.21987,0.445058 -0.72387,0.976328 -1.14609,1.208103 -0.31646,0.173717 -0.43002,0.19726 -1.05235,0.218157 l -0.69761,0.02341 -0.96336,-0.409807 C 102.24796,82.840091 97.89766,81.327749 91.00195,79.258255 84.00125,77.157252 79.73843,76.09043 78.04408,76.015389 l -0.81388,-0.03605 0.001,0.357774 c 7.9e-4,0.196776 0.0467,0.671698 0.10224,1.055384 0.0556,0.383685 0.12578,1.440823 0.15603,2.349193 0.0397,1.193154 0.0779,1.665734 0.13748,1.702556 0.0454,0.02804 0.75941,0.236025 1.58678,0.462198 3.62945,0.992169 4.48666,1.296504 4.94618,1.756021 0.62844,0.628439 1.1465,2.113286 3.32497,9.52982 0.27165,0.92483 0.51312,1.70072 0.53661,1.7242 0.0591,0.0592 0.84264,0.14125 1.38723,0.14536 0.77468,0.006 1.01883,0.10201 1.51541,0.59687 0.37692,0.37562 0.45031,0.48811 0.5149,0.78927 0.105,0.48961 0.0927,2.01237 -0.0205,2.54674 -0.16728,0.78923 -0.54774,1.304805 -1.06682,1.445675 -0.36872,0.10006 -1.10988,0.0888 -1.64722,-0.0251 -0.55189,-0.11694 -1.57591,-0.593445 -2.1393,-0.995475 -0.84225,-0.60102 -1.17421,-1.13654 -1.46379,-2.36141 -0.71484,-3.02366 -1.13962,-4.50802 -1.88738,-6.59538 -0.58265,-1.626444 -0.77573,-2.130514 -0.93126,-2.431154 l -0.12503,-0.241703 -0.0719,0.186543 c -0.0395,0.1026 -0.14548,0.47632 -0.23546,0.83049 -0.09,0.354164 -0.49497,1.809944 -0.89998,3.235064 -0.40502,1.42512 -0.74139,2.70171 -0.7475,2.83689 -0.009,0.20403 0.066,0.35839 0.44328,0.90898 0.53786,0.78506 0.6366,1.10118 0.6366,2.03817 0,2.325305 -1.57403,4.067755 -3.16163,3.499945 z M 44.80806,55.752813 c 0,-0.04989 -0.0597,0.0029 -0.33497,0.296199 l -0.2962,0.315584 0.31559,-0.296198 c 0.17357,-0.16291 0.31558,-0.304922 0.31558,-0.315585 z"
       style="opacity:1;fill:#a8a8a8;fill-opacity:1;stroke:none;stroke-width:0.31226301;stroke-linecap:round;stroke-linejoin:miter;stroke-miterlimit:4;stroke-dasharray:none;stroke-dashoffset:0;stroke-opacity:1"
       inkscape:connector-curvature="0" />
    <path
       style="opacity:1;fill:#ffffff;fill-opacity:1;stroke:none;stroke-width:0.00841134;stroke-linecap:butt;stroke-linejoin:miter;stroke-miterlimit:4;stroke-dasharray:none;stroke-dashoffset:0;stroke-opacity:1"
       d="m 36.77939,62.97378 a 1.6186283,1.4612617 40.911816 0 1 0.26625,2.164336 1.6186283,1.4612617 40.911816 0 1 -2.180196,0.04427 1.6186283,1.4612617 40.911816 0 1 -0.266251,-2.164337 1.6186283,1.4612617 40.911816 0 1 2.180197,-0.04427 z"
       id="path927-7"
       inkscape:connector-curvature="0" />
  </g>
</svg>
